<svg width="30" height="30" viewBox="0 0 30 30" fill="none" xmlns="http://www.w3.org/2000/svg">
<path d="M18.1629 11.8375L11.8379 18.1625C11.0254 17.35 10.5254 16.2375 10.5254 15C10.5254 12.525 12.5254 10.525 15.0004 10.525C16.2379 10.525 17.3504 11.025 18.1629 11.8375Z" stroke="#74809C" stroke-opacity="0.6" stroke-width="1.5" stroke-linecap="round" stroke-linejoin="round"/>
<path d="M22.2758 7.21248C20.0883 5.56248 17.5883 4.66248 15.0008 4.66248C10.5883 4.66248 6.47578 7.26248 3.61328 11.7625C2.48828 13.525 2.48828 16.4875 3.61328 18.25C4.60078 19.8 5.75078 21.1375 7.00078 22.2125" stroke="#74809C" stroke-opacity="0.6" stroke-width="1.5" stroke-linecap="round" stroke-linejoin="round"/>
<path d="M10.5254 24.4125C11.9504 25.0125 13.4629 25.3375 15.0004 25.3375C19.4129 25.3375 23.5254 22.7375 26.3879 18.2375C27.5129 16.475 27.5129 13.5125 26.3879 11.75C25.9754 11.1 25.5254 10.4875 25.0629 9.91248" stroke="#74809C" stroke-opacity="0.6" stroke-width="1.5" stroke-linecap="round" stroke-linejoin="round"/>
<path d="M19.3883 15.875C19.0633 17.6375 17.6258 19.075 15.8633 19.4" stroke="#74809C" stroke-opacity="0.6" stroke-width="1.5" stroke-linecap="round" stroke-linejoin="round"/>
<path d="M11.8375 18.1625L2.5 27.5" stroke="#74809C" stroke-opacity="0.6" stroke-width="1.5" stroke-linecap="round" stroke-linejoin="round"/>
<path d="M27.4996 2.5L18.1621 11.8375" stroke="#74809C" stroke-opacity="0.6" stroke-width="1.5" stroke-linecap="round" stroke-linejoin="round"/>
</svg>
