<svg width="30" height="30" viewBox="0 0 30 30" fill="none" xmlns="http://www.w3.org/2000/svg">
<path d="M19.4734 15C19.4734 17.475 17.4734 19.475 14.9984 19.475C12.5234 19.475 10.5234 17.475 10.5234 15C10.5234 12.525 12.5234 10.525 14.9984 10.525C17.4734 10.525 19.4734 12.525 19.4734 15Z" stroke="#74809C" stroke-opacity="0.6" stroke-width="1.5" stroke-linecap="round" stroke-linejoin="round"/>
<path d="M15.0008 25.3375C19.4133 25.3375 23.5258 22.7375 26.3883 18.2375C27.5133 16.475 27.5133 13.5125 26.3883 11.75C23.5258 7.25002 19.4133 4.65002 15.0008 4.65002C10.5883 4.65002 6.47578 7.25002 3.61328 11.75C2.48828 13.5125 2.48828 16.475 3.61328 18.2375C6.47578 22.7375 10.5883 25.3375 15.0008 25.3375Z" stroke="#74809C" stroke-opacity="0.6" stroke-width="1.5" stroke-linecap="round" stroke-linejoin="round"/>
</svg>
